HIERARCHY
ROOT Hips
{
    OFFSET 0.000000 0.000000 0.000000
    CHANNELS 6 Xposition Yposition Zposition Zrotation Xrotation Yrotation
    JOINT Spine
    {
        OFFSET -0.000000 7.305680 0.000000
        CHANNELS 3 Zrotation Xrotation Yrotation
        JOINT Spine1
        {
            OFFSET -0.000000 20.356600 0.000000
            CHANNELS 3 Zrotation Xrotation Yrotation
            JOINT Neck
            {
                OFFSET -0.000000 22.138500 0.000000
                CHANNELS 3 Zrotation Xrotation Yrotation
                JOINT Head
                {
                    OFFSET -0.000000 13.809501 1.781870
                    CHANNELS 3 Zrotation Xrotation Yrotation
                    End Site
                    {
                        OFFSET -0.000000 17.818779 0.000000
                    }
                }
            }
            JOINT LeftShoulder
            {
                OFFSET 3.599130 17.990000 0.023591
                CHANNELS 3 Zrotation Xrotation Yrotation
                JOINT LeftArm
                {
                    OFFSET 12.560999 0.000000 0.000000
                    CHANNELS 3 Zrotation Xrotation Yrotation
                    JOINT LeftForeArm
                    {
                        OFFSET 22.903299 0.000000 0.000000
                        CHANNELS 3 Zrotation Xrotation Yrotation
                        JOINT LeftHand
                        {
                            OFFSET 21.865299 0.000000 0.000000
                            CHANNELS 3 Zrotation Xrotation Yrotation
                            JOINT LeftHandThumb1
                            {
                                OFFSET 1.853710 -2.106480 2.949080
                                CHANNELS 3 Zrotation Xrotation Yrotation
                                JOINT LeftHandThumb2
                                {
                                    OFFSET 2.049150 0.000000 1.336400
                                    CHANNELS 3 Zrotation Xrotation Yrotation
                                    JOINT LeftHandThumb3
                                    {
                                        OFFSET 2.672810 0.000000 0.000000
                                        CHANNELS 3 Zrotation Xrotation Yrotation
                                        End Site
                                        {
                                            OFFSET 2.381310 0.000000 0.000000
                                        }
                                    }
                                }
                            }
                            JOINT LeftHandIndex1
                            {
                                OFFSET 7.583340 0.000000 2.949080
                                CHANNELS 3 Zrotation Xrotation Yrotation
                                JOINT LeftHandIndex2
                                {
                                    OFFSET 4.454680 0.000000 0.000000
                                    CHANNELS 3 Zrotation Xrotation Yrotation
                                    JOINT LeftHandIndex3
                                    {
                                        OFFSET 2.227340 0.000000 0.000000
                                        CHANNELS 3 Zrotation Xrotation Yrotation
                                        End Site
                                        {
                                            OFFSET 1.984424 0.000000 0.000000
                                        }
                                    }
                                }
                            }
                            JOINT LeftHandMiddle1
                            {
                                OFFSET 7.583340 0.000000 0.977409
                                CHANNELS 3 Zrotation Xrotation Yrotation
                                JOINT LeftHandMiddle2
                                {
                                    OFFSET 4.900150 0.000000 0.000000
                                    CHANNELS 3 Zrotation Xrotation Yrotation
                                    JOINT LeftHandMiddle3
                                    {
                                        OFFSET 2.672810 0.000000 0.000000
                                        CHANNELS 3 Zrotation Xrotation Yrotation
                                        End Site
                                        {
                                            OFFSET 2.381310 0.000000 0.000000
                                        }
                                    }
                                }
                            }
                            JOINT LeftHandRing1
                            {
                                OFFSET 7.162050 0.000000 -0.977409
                                CHANNELS 3 Zrotation Xrotation Yrotation
                                JOINT LeftHandRing2
                                {
                                    OFFSET 4.454680 0.000000 0.000000
                                    CHANNELS 3 Zrotation Xrotation Yrotation
                                    JOINT LeftHandRing3
                                    {
                                        OFFSET 2.227340 0.000000 0.000000
                                        CHANNELS 3 Zrotation Xrotation Yrotation
                                        End Site
                                        {
                                            OFFSET 1.984424 0.000000 0.000000
                                        }
                                    }
                                }
                            }
                            JOINT LeftHandPinky1
                            {
                                OFFSET 6.740750 0.000000 -2.949080
                                CHANNELS 3 Zrotation Xrotation Yrotation
                                JOINT LeftHandPinky2
                                {
                                    OFFSET 3.563750 0.000000 0.000000
                                    CHANNELS 3 Zrotation Xrotation Yrotation
                                    JOINT LeftHandPinky3
                                    {
                                        OFFSET 1.781870 0.000000 0.000000
                                        CHANNELS 3 Zrotation Xrotation Yrotation
                                        End Site
                                        {
                                            OFFSET 1.587538 0.000000 0.000000
                                        }
                                    }
                                }
                            }
                        }
                    }
                }
            }
            JOINT RightShoulder
            {
                OFFSET -3.506990 17.990000 0.023591
                CHANNELS 3 Zrotation Xrotation Yrotation
                JOINT RightArm
                {
                    OFFSET -12.560999 0.000000 0.000000
                    CHANNELS 3 Zrotation Xrotation Yrotation
                    JOINT RightForeArm
                    {
                        OFFSET -22.903299 0.000000 0.000000
                        CHANNELS 3 Zrotation Xrotation Yrotation
                        JOINT RightHand
                        {
                            OFFSET -21.865299 0.000000 0.000000
                            CHANNELS 3 Zrotation Xrotation Yrotation
                            JOINT RightHandThumb1
                            {
                                OFFSET -1.853710 -2.106480 2.949080
                                CHANNELS 3 Zrotation Xrotation Yrotation
                                JOINT RightHandThumb2
                                {
                                    OFFSET -2.049150 0.000000 1.336400
                                    CHANNELS 3 Zrotation Xrotation Yrotation
                                    JOINT RightHandThumb3
                                    {
                                        OFFSET -2.672810 0.000000 0.000000
                                        CHANNELS 3 Zrotation Xrotation Yrotation
                                        End Site
                                        {
                                            OFFSET -2.381310 0.000000 0.000000
                                        }
                                    }
                                }
                            }
                            JOINT RightHandIndex1
                            {
                                OFFSET -7.583340 0.000000 2.949080
                                CHANNELS 3 Zrotation Xrotation Yrotation
                                JOINT RightHandIndex2
                                {
                                    OFFSET -4.454680 0.000000 0.000000
                                    CHANNELS 3 Zrotation Xrotation Yrotation
                                    JOINT RightHandIndex3
                                    {
                                        OFFSET -2.227340 0.000000 0.000000
                                        CHANNELS 3 Zrotation Xrotation Yrotation
                                        End Site
                                        {
                                            OFFSET -1.984424 0.000000 0.000000
                                        }
                                    }
                                }
                            }
                            JOINT RightHandMiddle1
                            {
                                OFFSET -7.583340 0.000000 0.977409
                                CHANNELS 3 Zrotation Xrotation Yrotation
                                JOINT RightHandMiddle2
                                {
                                    OFFSET -4.900150 0.000000 0.000000
                                    CHANNELS 3 Zrotation Xrotation Yrotation
                                    JOINT RightHandMiddle3
                                    {
                                        OFFSET -2.672810 0.000000 0.000000
                                        CHANNELS 3 Zrotation Xrotation Yrotation
                                        End Site
                                        {
                                            OFFSET -2.381310 0.000000 0.000000
                                        }
                                    }
                                }
                            }
                            JOINT RightHandRing1
                            {
                                OFFSET -7.162050 0.000000 -0.977409
                                CHANNELS 3 Zrotation Xrotation Yrotation
                                JOINT RightHandRing2
                                {
                                    OFFSET -4.454680 0.000000 0.000000
                                    CHANNELS 3 Zrotation Xrotation Yrotation
                                    JOINT RightHandRing3
                                    {
                                        OFFSET -2.227340 0.000000 0.000000
                                        CHANNELS 3 Zrotation Xrotation Yrotation
                                        End Site
                                        {
                                            OFFSET -1.984424 0.000000 0.000000
                                        }
                                    }
                                }
                            }
                            JOINT RightHandPinky1
                            {
                                OFFSET -6.740750 0.000000 -2.949080
                                CHANNELS 3 Zrotation Xrotation Yrotation
                                JOINT RightHandPinky2
                                {
                                    OFFSET -3.563750 0.000000 0.000000
                                    CHANNELS 3 Zrotation Xrotation Yrotation
                                    JOINT RightHandPinky3
                                    {
                                        OFFSET -1.781870 0.000000 0.000000
                                        CHANNELS 3 Zrotation Xrotation Yrotation
                                        End Site
                                        {
                                            OFFSET -1.587538 0.000000 0.000000
                                        }
                                    }
                                }
                            }
                        }
                    }
                }
            }
        }
    }
    JOINT LeftUpLeg
    {
        OFFSET 8.909360 0.000000 0.000000
        CHANNELS 3 Zrotation Xrotation Yrotation
        JOINT LeftLeg
        {
            OFFSET -0.000000 -38.765602 0.000000
            CHANNELS 3 Zrotation Xrotation Yrotation
            JOINT LeftFoot
            {
                OFFSET -0.000000 -35.245003 0.000000
                CHANNELS 3 Zrotation Xrotation Yrotation
                JOINT LeftToeBase
                {
                    OFFSET -0.000000 -5.791090 13.364000
                    CHANNELS 3 Zrotation Xrotation Yrotation
                    End Site
                    {
                        OFFSET -0.000000 0.000000 3.563756
                    }
                }
            }
        }
    }
    JOINT RightUpLeg
    {
        OFFSET -8.909360 0.000000 0.000000
        CHANNELS 3 Zrotation Xrotation Yrotation
        JOINT RightLeg
        {
            OFFSET -0.000000 -38.765602 0.000000
            CHANNELS 3 Zrotation Xrotation Yrotation
            JOINT RightFoot
            {
                OFFSET -0.000000 -35.245003 0.000000
                CHANNELS 3 Zrotation Xrotation Yrotation
                JOINT RightToeBase
                {
                    OFFSET -0.000000 -5.791090 13.364000
                    CHANNELS 3 Zrotation Xrotation Yrotation
                    End Site
                    {
                        OFFSET -0.000000 0.000000 3.563756
                    }
                }
            }
        }
    }
}
MOTION
Frames:    4
Frame Time:    0.033333
-5.488112    80.228722    120.108856    -4.233738    -1.256082    -16.160139    -2.731023    5.750751    5.494673    3.574510    5.425007    1.618944    5.100838    4.153166    9.570371    4.088756    -12.063619    10.671702    3.572362    3.653678    -7.107901    -84.642281    31.577097    -3.566726    34.411812    -1.806989    -29.647968    -3.917931    -26.188679    0.992178    1.629585    -0.058206    1.909385    -0.000000    0.000000    1.989943    -0.000000    0.000000    3.979887    -19.376371    4.227565    -11.838346    -39.629749    0.000000    0.000000    -19.814875    0.000000    0.000000    -28.414831    0.364294    -3.651483    -56.849087    0.000000    0.000000    -28.424541    0.000000    0.000000    -36.840202    -4.697034    3.852959    -74.068428    0.000000    0.000000    -37.034210    0.000000    0.000000    -44.863453    -10.963742    10.818590    -91.809547    0.000000    0.000000    -45.904774    0.000000    0.000000    -4.925615    -2.864774    1.726385    82.605286    52.322388    0.326019    -14.897696    -0.801309    7.908669    6.597551    -33.123428    -5.707761    0.384954    -3.344267    5.452723    0.000000    0.000000    0.000000    0.000000    0.000000    0.000000    19.441444    0.000000    -0.000000    38.882889    0.000000    -0.000000    19.441444    0.000000    -0.000000    25.273453    -1.333992    -2.198633    50.614155    0.000000    -0.000000    25.307074    0.000000    -0.000000    31.055477    -2.883585    -4.252258    62.345417    0.000000    -0.000000    31.172709    0.000000    -0.000000    36.962204    -4.687103    -6.197314    74.432167    0.000000    -0.000000    37.216084    0.000000    -0.000000    3.974730    -11.837424    6.758946    -2.458247    39.759811    12.843525    -5.374308    -13.452948    0.268307    0.196838    -7.066097    -1.568420    -2.926788    -7.605929    -8.436053    5.096339    25.736206    -22.944221    7.996445    -15.597687    0.040528    -0.526887    -1.474680    0.687150    
-5.299887    79.659096    120.631981    -4.988939    -3.026402    -13.686608    -2.213471    5.191205    5.855124    5.176186    8.192654    1.549546    3.738501    4.924631    8.322735    3.961499    -13.741035    9.236562    3.859497    3.485814    -7.326980    -85.725922    33.070236    -3.385756    31.439594    2.217791    -23.868929    -3.194557    -24.190224    4.039967    1.292585    -0.296447    1.227296    -0.000000    0.000000    1.445555    -0.000000    0.000000    2.891110    -20.119322    4.626194    -12.416655    -41.245674    0.000000    0.000000    -20.622837    0.000000    0.000000    -29.075350    0.593017    -4.016545    -58.180370    0.000000    0.000000    -29.090181    0.000000    0.000000    -37.374580    -4.654335    3.679808    -75.115044    0.000000    0.000000    -37.557526    0.000000    0.000000    -45.223633    -11.120593    10.833980    -92.562904    0.000000    0.000000    -46.281456    0.000000    0.000000    -4.065133    -3.419420    2.745923    81.538361    51.872200    0.404875    -16.280128    -3.503221    8.639705    2.431674    -34.962616    -4.057339    0.005103    -2.561973    3.982422    0.000000    0.000000    0.000000    0.000000    0.000000    0.000000    18.142534    0.000000    -0.000000    36.285061    0.000000    -0.000000    18.142534    0.000000    -0.000000    23.758263    -1.382774    -2.442034    47.593887    0.000000    -0.000000    23.796953    0.000000    -0.000000    29.315657    -2.996707    -4.739360    58.902721    0.000000    -0.000000    29.451361    0.000000    -0.000000    34.981049    -4.882823    -6.935783    70.554245    0.000000    -0.000000    35.277122    0.000000    -0.000000    2.866295    -9.937982    3.373867    -1.094666    40.180492    8.909571    -4.457241    -16.644518    2.878162    0.189006    -5.703323    -1.308594    -2.435308    -7.497233    -7.219646    3.348303    30.253735    -20.997215    6.600342    -16.247339    0.487457    -0.433206    -1.561369    0.529363    
-5.156060    79.143028    120.950089    -5.281095    -4.719400    -10.747231    -1.878784    5.114379    6.201246    6.590647    10.544426    1.432478    2.429653    4.429811    6.900543    3.981402    -14.498788    7.549649    3.988323    3.656991    -7.388186    -86.253738    33.487148    -2.889879    28.725840    6.889011    -20.310026    -3.279151    -21.667614    6.073084    0.946483    -0.687960    0.353583    -0.000000    0.000000    0.697057    -0.000000    0.000000    1.394113    -20.882570    5.013050    -12.900599    -42.899376    0.000000    0.000000    -21.449686    0.000000    0.000000    -29.763165    0.741263    -4.239849    -59.565662    0.000000    0.000000    -29.782831    0.000000    0.000000    -37.928791    -4.766354    3.686357    -76.231956    0.000000    0.000000    -38.115978    0.000000    0.000000    -45.583160    -11.510516    11.063272    -93.403297    0.000000    0.000000    -46.701641    0.000000    0.000000    -3.155237    -3.909198    3.560112    81.216225    51.625526    -0.271713    -18.573181    -7.879964    10.303533    -0.292213    -37.791576    -1.724532    -0.354604    -1.958699    2.806989    0.000000    0.000000    0.000000    0.000000    0.000000    0.000000    16.663416    0.000000    -0.000000    33.326828    0.000000    -0.000000    16.663416    0.000000    -0.000000    22.222656    -1.386021    -2.614165    44.528858    0.000000    -0.000000    22.264429    0.000000    -0.000000    27.718594    -3.017407    -5.084301    55.730873    0.000000    -0.000000    27.865437    0.000000    -0.000000    33.314240    -4.936108    -7.458730    67.272362    0.000000    -0.000000    33.636181    0.000000    -0.000000    1.813484    -8.353930    0.465661    -0.548247    40.412117    7.488381    -3.260993    -19.114292    4.248840    0.228446    -4.476846    -1.214928    -1.898441    -7.926558    -3.932889    2.293122    35.437092    -18.284895    5.422270    -17.305710    -0.790820    -0.406813    -1.610945    0.482357    
-5.048215    78.758186    120.982483    -5.017460    -6.324073    -6.974041    -1.680230    5.820964    6.132119    7.597346    12.198692    1.204898    1.355870    2.877005    5.380916    3.912599    -14.461209    5.772068    3.943750    4.136642    -7.326544    -86.007133    32.950695    -1.919628    26.567457    11.868063    -19.074675    -4.075543    -19.771452    5.958612    0.649074    -0.807120    -0.147167    -0.000000    0.000000    0.271319    -0.000000    0.000000    0.542638    -21.170958    5.076379    -12.869364    -43.487698    0.000000    0.000000    -21.743845    0.000000    0.000000    -30.001755    0.644706    -4.075983    -60.040428    0.000000    0.000000    -30.020216    0.000000    0.000000    -38.083893    -5.031338    3.965285    -76.593163    0.000000    0.000000    -38.296581    0.000000    0.000000    -45.620842    -11.950603    11.454685    -93.647507    0.000000    0.000000    -46.823746    0.000000    0.000000    -2.477527    -4.297050    3.997196    81.342506    50.089024    -0.494875    -21.604500    -11.330099    12.379668    -0.568022    -40.561283    2.004495    -0.571045    -1.611339    2.127001    0.000000    0.000000    0.000000    0.000000    0.000000    0.000000    16.468451    0.000000    -0.000000    32.936901    0.000000    -0.000000    16.468451    0.000000    -0.000000    21.814569    -1.362284    -2.638568    43.711559    0.000000    -0.000000    21.855783    0.000000    -0.000000    27.097591    -2.963108    -5.141212    54.486217    0.000000    -0.000000    27.243111    0.000000    -0.000000    32.473457    -4.844622    -7.559081    65.587379    0.000000    -0.000000    32.793690    0.000000    -0.000000    1.011129    -7.264667    -1.251345    -0.084641    40.506886    6.890970    -2.476954    -20.481676    3.381246    0.300764    -3.551408    -1.261376    -1.886541    -8.797108    -0.362845    3.633208    41.121353    -17.927198    5.191579    -18.213314    -1.673833    -0.428078    -1.574458    0.519888    
